<mxfile host="app.diagrams.net" agent="Mozilla/5.0 (Windows NT 10.0; Win64; x64) AppleWebKit/537.36 (KHTML, like Gecko) Chrome/137.0.0.0 Safari/537.36" version="27.1.5">
  <diagram name="Страница — 1" id="Q6JnuxFZId_jHeDmY63z">
    <mxGraphModel dx="1188" dy="654" grid="1" gridSize="10" guides="1" tooltips="1" connect="1" arrows="1" fold="1" page="1" pageScale="1" pageWidth="827" pageHeight="1169" math="0" shadow="0">
      <root>
        <mxCell id="0" />
        <mxCell id="1" parent="0" />
        <mxCell id="SLr4CBNVewSfdofhurNj-26" style="edgeStyle=orthogonalEdgeStyle;rounded=0;orthogonalLoop=1;jettySize=auto;html=1;entryX=0;entryY=0.5;entryDx=0;entryDy=0;" edge="1" parent="1" source="SLr4CBNVewSfdofhurNj-2" target="SLr4CBNVewSfdofhurNj-9">
          <mxGeometry relative="1" as="geometry" />
        </mxCell>
        <mxCell id="SLr4CBNVewSfdofhurNj-2" value="1" style="swimlane;whiteSpace=wrap;html=1;swimlaneLine=1;autosize=0;gradientColor=none;swimlaneFillColor=none;perimeterSpacing=0;startSize=15;align=left;spacing=3;flipH=1;flipV=1;spacingLeft=5;" vertex="1" parent="1">
          <mxGeometry x="50" y="620" width="140" height="85" as="geometry" />
        </mxCell>
        <mxCell id="SLr4CBNVewSfdofhurNj-3" value="" style="endArrow=none;html=1;rounded=0;" edge="1" parent="SLr4CBNVewSfdofhurNj-2">
          <mxGeometry width="50" height="50" relative="1" as="geometry">
            <mxPoint x="70" y="70" as="sourcePoint" />
            <mxPoint x="70.04" y="85" as="targetPoint" />
          </mxGeometry>
        </mxCell>
        <mxCell id="SLr4CBNVewSfdofhurNj-5" value="принять заявку на бронирование" style="text;html=1;align=center;verticalAlign=middle;whiteSpace=wrap;rounded=0;labelPosition=center;verticalLabelPosition=middle;" vertex="1" parent="SLr4CBNVewSfdofhurNj-2">
          <mxGeometry x="50" y="20" width="40" height="20" as="geometry" />
        </mxCell>
        <mxCell id="SLr4CBNVewSfdofhurNj-39" style="edgeStyle=orthogonalEdgeStyle;rounded=0;orthogonalLoop=1;jettySize=auto;html=1;exitX=0.5;exitY=0;exitDx=0;exitDy=0;entryX=0.5;entryY=1;entryDx=0;entryDy=0;" edge="1" parent="1" source="SLr4CBNVewSfdofhurNj-6" target="SLr4CBNVewSfdofhurNj-38">
          <mxGeometry relative="1" as="geometry" />
        </mxCell>
        <mxCell id="SLr4CBNVewSfdofhurNj-6" value="4" style="swimlane;whiteSpace=wrap;html=1;swimlaneLine=1;autosize=0;gradientColor=none;swimlaneFillColor=none;perimeterSpacing=0;startSize=15;align=left;spacing=3;flipH=1;flipV=1;spacingLeft=5;" vertex="1" parent="1">
          <mxGeometry x="480" y="450" width="140" height="85" as="geometry" />
        </mxCell>
        <mxCell id="SLr4CBNVewSfdofhurNj-7" value="" style="endArrow=none;html=1;rounded=0;" edge="1" parent="SLr4CBNVewSfdofhurNj-6">
          <mxGeometry width="50" height="50" relative="1" as="geometry">
            <mxPoint x="70" y="70" as="sourcePoint" />
            <mxPoint x="70.04" y="85" as="targetPoint" />
          </mxGeometry>
        </mxCell>
        <mxCell id="SLr4CBNVewSfdofhurNj-8" value="Оплата бронирования" style="text;html=1;align=center;verticalAlign=middle;whiteSpace=wrap;rounded=0;labelPosition=center;verticalLabelPosition=middle;" vertex="1" parent="SLr4CBNVewSfdofhurNj-6">
          <mxGeometry x="50" y="20" width="40" height="20" as="geometry" />
        </mxCell>
        <mxCell id="SLr4CBNVewSfdofhurNj-18" style="edgeStyle=orthogonalEdgeStyle;rounded=0;orthogonalLoop=1;jettySize=auto;html=1;entryX=0;entryY=0.5;entryDx=0;entryDy=0;" edge="1" parent="1" source="SLr4CBNVewSfdofhurNj-9" target="SLr4CBNVewSfdofhurNj-17">
          <mxGeometry relative="1" as="geometry" />
        </mxCell>
        <mxCell id="SLr4CBNVewSfdofhurNj-9" value="2" style="swimlane;whiteSpace=wrap;html=1;swimlaneLine=1;autosize=0;gradientColor=none;swimlaneFillColor=none;perimeterSpacing=0;startSize=15;align=left;spacing=3;flipH=1;flipV=1;spacingLeft=5;" vertex="1" parent="1">
          <mxGeometry x="250" y="620" width="140" height="85" as="geometry" />
        </mxCell>
        <mxCell id="SLr4CBNVewSfdofhurNj-10" value="" style="endArrow=none;html=1;rounded=0;" edge="1" parent="SLr4CBNVewSfdofhurNj-9">
          <mxGeometry width="50" height="50" relative="1" as="geometry">
            <mxPoint x="70" y="70" as="sourcePoint" />
            <mxPoint x="70.04" y="85" as="targetPoint" />
          </mxGeometry>
        </mxCell>
        <mxCell id="SLr4CBNVewSfdofhurNj-11" value="проверить наличие номеров" style="text;html=1;align=center;verticalAlign=middle;whiteSpace=wrap;rounded=0;labelPosition=center;verticalLabelPosition=middle;" vertex="1" parent="SLr4CBNVewSfdofhurNj-9">
          <mxGeometry x="50" y="20" width="40" height="20" as="geometry" />
        </mxCell>
        <mxCell id="SLr4CBNVewSfdofhurNj-12" value="3" style="swimlane;whiteSpace=wrap;html=1;swimlaneLine=1;autosize=0;gradientColor=none;swimlaneFillColor=none;perimeterSpacing=0;startSize=20;align=left;spacing=3;flipH=1;flipV=1;spacingLeft=5;" vertex="1" parent="1">
          <mxGeometry x="480" y="720" width="140" height="70" as="geometry" />
        </mxCell>
        <mxCell id="SLr4CBNVewSfdofhurNj-13" value="" style="endArrow=none;html=1;rounded=0;exitX=0.5;exitY=1;exitDx=0;exitDy=0;" edge="1" parent="SLr4CBNVewSfdofhurNj-12" source="SLr4CBNVewSfdofhurNj-12">
          <mxGeometry width="50" height="50" relative="1" as="geometry">
            <mxPoint x="69.84" y="55" as="sourcePoint" />
            <mxPoint x="70" y="50" as="targetPoint" />
          </mxGeometry>
        </mxCell>
        <mxCell id="SLr4CBNVewSfdofhurNj-14" value="Уведомить клиента&amp;nbsp;" style="text;html=1;align=center;verticalAlign=middle;whiteSpace=wrap;rounded=0;labelPosition=center;verticalLabelPosition=middle;" vertex="1" parent="SLr4CBNVewSfdofhurNj-12">
          <mxGeometry x="50" y="20" width="40" height="20" as="geometry" />
        </mxCell>
        <mxCell id="SLr4CBNVewSfdofhurNj-21" style="edgeStyle=orthogonalEdgeStyle;rounded=0;orthogonalLoop=1;jettySize=auto;html=1;" edge="1" parent="1" source="SLr4CBNVewSfdofhurNj-17" target="SLr4CBNVewSfdofhurNj-12">
          <mxGeometry relative="1" as="geometry" />
        </mxCell>
        <mxCell id="SLr4CBNVewSfdofhurNj-23" style="edgeStyle=orthogonalEdgeStyle;rounded=0;orthogonalLoop=1;jettySize=auto;html=1;entryX=0.5;entryY=1;entryDx=0;entryDy=0;" edge="1" parent="1" source="SLr4CBNVewSfdofhurNj-17" target="SLr4CBNVewSfdofhurNj-6">
          <mxGeometry relative="1" as="geometry">
            <mxPoint x="530" y="550" as="targetPoint" />
          </mxGeometry>
        </mxCell>
        <mxCell id="SLr4CBNVewSfdofhurNj-17" value="&lt;font style=&quot;font-size: 34px;&quot;&gt;X&lt;/font&gt;" style="shape=internalStorage;whiteSpace=wrap;html=1;backgroundOutline=1;dx=10;dy=0;align=right;" vertex="1" parent="1">
          <mxGeometry x="420" y="642.5" width="40" height="40" as="geometry" />
        </mxCell>
        <mxCell id="SLr4CBNVewSfdofhurNj-24" value="есть свободные&lt;div&gt;&amp;nbsp;номера&lt;/div&gt;" style="text;html=1;align=center;verticalAlign=middle;resizable=0;points=[];autosize=1;strokeColor=none;fillColor=none;" vertex="1" parent="1">
          <mxGeometry x="545" y="565" width="110" height="40" as="geometry" />
        </mxCell>
        <mxCell id="SLr4CBNVewSfdofhurNj-25" value="нет свободных&lt;div&gt;&amp;nbsp;номеров&lt;/div&gt;" style="text;html=1;align=center;verticalAlign=middle;resizable=0;points=[];autosize=1;strokeColor=none;fillColor=none;" vertex="1" parent="1">
          <mxGeometry x="545" y="665" width="110" height="40" as="geometry" />
        </mxCell>
        <mxCell id="SLr4CBNVewSfdofhurNj-27" value="6" style="swimlane;whiteSpace=wrap;html=1;swimlaneLine=1;autosize=0;gradientColor=none;swimlaneFillColor=none;perimeterSpacing=0;startSize=20;align=left;spacing=3;flipH=1;flipV=1;spacingLeft=5;" vertex="1" parent="1">
          <mxGeometry x="470" y="240" width="140" height="80" as="geometry" />
        </mxCell>
        <mxCell id="SLr4CBNVewSfdofhurNj-28" value="" style="endArrow=none;html=1;rounded=0;" edge="1" parent="SLr4CBNVewSfdofhurNj-27">
          <mxGeometry width="50" height="50" relative="1" as="geometry">
            <mxPoint x="70.06" y="60" as="sourcePoint" />
            <mxPoint x="69.83000000000001" y="80" as="targetPoint" />
          </mxGeometry>
        </mxCell>
        <mxCell id="SLr4CBNVewSfdofhurNj-29" value="передать данные об оплате администратору" style="text;html=1;align=center;verticalAlign=middle;whiteSpace=wrap;rounded=0;labelPosition=center;verticalLabelPosition=middle;" vertex="1" parent="SLr4CBNVewSfdofhurNj-27">
          <mxGeometry x="50" y="20" width="40" height="20" as="geometry" />
        </mxCell>
        <mxCell id="SLr4CBNVewSfdofhurNj-30" value="5" style="swimlane;whiteSpace=wrap;html=1;swimlaneLine=1;autosize=0;gradientColor=none;swimlaneFillColor=none;perimeterSpacing=0;startSize=18;align=left;spacing=3;flipH=1;flipV=1;spacingLeft=5;" vertex="1" parent="1">
          <mxGeometry x="290" y="361.5" width="140" height="78" as="geometry" />
        </mxCell>
        <mxCell id="SLr4CBNVewSfdofhurNj-31" value="" style="endArrow=none;html=1;rounded=0;" edge="1" parent="SLr4CBNVewSfdofhurNj-30">
          <mxGeometry width="50" height="50" relative="1" as="geometry">
            <mxPoint x="69.8" y="60" as="sourcePoint" />
            <mxPoint x="69.82000000000001" y="78" as="targetPoint" />
            <Array as="points">
              <mxPoint x="69.8" y="63" />
            </Array>
          </mxGeometry>
        </mxCell>
        <mxCell id="SLr4CBNVewSfdofhurNj-32" value="передать данные о бронировании отелю" style="text;html=1;align=center;verticalAlign=middle;whiteSpace=wrap;rounded=0;labelPosition=center;verticalLabelPosition=middle;" vertex="1" parent="SLr4CBNVewSfdofhurNj-30">
          <mxGeometry x="50" y="20" width="40" height="20" as="geometry" />
        </mxCell>
        <mxCell id="SLr4CBNVewSfdofhurNj-40" style="edgeStyle=orthogonalEdgeStyle;rounded=0;orthogonalLoop=1;jettySize=auto;html=1;entryX=1;entryY=0.5;entryDx=0;entryDy=0;" edge="1" parent="1" source="SLr4CBNVewSfdofhurNj-38" target="SLr4CBNVewSfdofhurNj-30">
          <mxGeometry relative="1" as="geometry" />
        </mxCell>
        <mxCell id="SLr4CBNVewSfdofhurNj-41" style="edgeStyle=orthogonalEdgeStyle;rounded=0;orthogonalLoop=1;jettySize=auto;html=1;" edge="1" parent="1" source="SLr4CBNVewSfdofhurNj-38">
          <mxGeometry relative="1" as="geometry">
            <mxPoint x="550.0000000000002" y="319.9999999999999" as="targetPoint" />
          </mxGeometry>
        </mxCell>
        <mxCell id="SLr4CBNVewSfdofhurNj-38" value="&amp;amp;" style="shape=process;whiteSpace=wrap;html=1;backgroundOutline=1;fontSize=34;" vertex="1" parent="1">
          <mxGeometry x="530" y="380.5" width="40" height="40" as="geometry" />
        </mxCell>
      </root>
    </mxGraphModel>
  </diagram>
</mxfile>
